<?xml version="1.0" encoding="UTF-8"?>
<svg width="40px" height="40px" viewBox="0 0 40 40" version="1.1" xmlns="http://www.w3.org/2000/svg" xmlns:xlink="http://www.w3.org/1999/xlink">
    <!-- Generator: Sketch 51.2 (57519) - http://www.bohemiancoding.com/sketch -->
    <title>Group 10</title>
    <desc>Created with Sketch.</desc>
    <defs></defs>
    <g id="Page-2" stroke="none" stroke-width="1" fill="none" fill-rule="evenodd">
        <g id="Macbook-Pro-Copy-3" transform="translate(-98.000000, -1053.000000)" fill-rule="nonzero">
            <g id="Group-10" transform="translate(98.000000, 1053.000000)">
                <path d="M20,0 C4.44444444,0 0,4.44444444 0,20 C0,35.5555556 4.45555556,40 20,40 C35.5444444,40 40,35.5555556 40,20 C40,4.44444444 35.5444444,0 20,0 Z" id="Shape" fill="#00FFE6"></path>
                <g id="noun_Pen_1279847" transform="translate(10.000000, 10.000000)" fill="#021872">
                    <path d="M20.8033554,6.09805625 C20.5411627,5.83577426 20.1478736,5.83577426 19.8856808,6.09805625 L18.3780726,7.60617769 L13.3964105,2.62281989 L14.9040187,1.11469845 C15.1662115,0.852416465 15.1662115,0.458993481 14.9040187,0.196711492 C14.641826,-0.0655704973 14.2485369,-0.0655704973 13.9863441,0.196711492 L12.0198986,2.16382641 C11.7577058,2.4261084 11.7577058,2.81953139 12.0198986,3.08181337 L12.1509949,3.21295437 C10.2500975,4.45879382 6.12056184,5.11449879 4.54740538,5.24563979 C4.28521264,5.24563979 4.0230199,5.44235128 3.95747171,5.70463327 L0.0245805696,20.1301427 C-0.0409676161,20.3924247 0.0245805696,20.6547067 0.221225127,20.7858477 C0.352321498,20.9169886 0.614514241,21.0481296 0.876706984,20.9825591 L15.2973078,17.0483293 C15.5595006,16.9827588 15.7561451,16.7204768 15.7561451,16.4581948 C15.8872415,14.8845029 16.5427234,10.7535616 17.7881389,8.85201714 L17.9192353,8.98315813 C18.181428,9.24544012 18.5747171,9.24544012 18.8369099,8.98315813 L20.8033554,7.01604321 C21.0655482,6.75376122 21.0655482,6.36033824 20.8033554,6.09805625 Z M14.5107296,15.8680604 L2.90870074,19.0154442 L7.16933281,14.7533619 C7.49707374,14.9500734 7.89036286,15.0156439 8.28365197,15.0156439 C8.87358564,15.0156439 9.46351931,14.8189324 9.92235661,14.3599389 C10.8400312,13.441952 10.8400312,11.999401 9.92235661,11.1469845 C9.00468201,10.2289976 7.56262193,10.2289976 6.71049551,11.1469845 C5.98946547,11.86826 5.8583691,12.9829585 6.3172064,13.8353749 L1.99102614,18.0974573 L5.13733906,6.49147924 C6.64494733,6.29476774 10.9711276,5.70463327 13.0686695,4.13094133 L16.8049161,7.86845968 C15.2973078,10.0322861 14.7073742,14.3599389 14.5107296,15.8680604 Z M7.49707374,13.5075224 C7.10378463,13.1140995 7.10378463,12.523965 7.49707374,12.130542 C7.6937183,11.9338305 7.95591104,11.86826 8.21810378,11.86826 C8.48029653,11.86826 8.74248927,11.9338305 8.93913383,12.130542 C9.33242294,12.523965 9.33242294,13.1140995 8.93913383,13.5075224 C8.54584471,13.8353749 7.89036286,13.8353749 7.49707374,13.5075224 Z" id="Shape"></path>
                </g>
            </g>
        </g>
    </g>
</svg>