<?xml version="1.0" encoding="UTF-8"?>
<svg width="40px" height="40px" viewBox="0 0 40 40" version="1.1" xmlns="http://www.w3.org/2000/svg" xmlns:xlink="http://www.w3.org/1999/xlink">
    <!-- Generator: Sketch 51.2 (57519) - http://www.bohemiancoding.com/sketch -->
    <title>Group 8</title>
    <desc>Created with Sketch.</desc>
    <defs></defs>
    <g id="Page-2" stroke="none" stroke-width="1" fill="none" fill-rule="evenodd">
        <g id="Macbook-Pro-Copy-3" transform="translate(-98.000000, -610.000000)" fill="#FFFFFF" fill-rule="nonzero">
            <g id="Group-8" transform="translate(98.000000, 610.000000)">
                <g id="Group-7-Copy" fill-opacity="0.1">
                    <g id="Group-11-Copy">
                        <g id="Group-10-Copy">
                            <path d="M20,0 C4.44444444,0 0,4.44444444 0,20 C0,35.5555556 4.45555556,40 20,40 C35.5444444,40 40,35.5555556 40,20 C40,4.44444444 35.5444444,0 20,0 Z" id="Shape"></path>
                        </g>
                    </g>
                </g>
                <g id="facebook-clr-cir" transform="translate(16.000000, 13.000000)">
                    <path d="M5.03422,7.83623371 L5.03422,13.4286229 L2.594056,13.4286229 L2.594056,7.83623371 L0.531566286,7.83623371 L0.531566286,5.46193943 L2.58207486,5.46193943 L2.58207486,3.327652 C2.58207486,3.327652 2.767072,0.57148 5.38060686,0.57148 C5.38060686,0.57148 7.06372514,0.564473714 7.46843371,0.665493143 L7.46843371,2.78890514 L6.00591829,2.78890514 C6.00591829,2.78890514 5.03954286,2.75567886 5.03954286,3.79384514 L5.03954286,5.46193943 L7.38578629,5.46193943 L7.079392,7.83623371 L5.03422,7.83623371 Z" id="Shape"></path>
                </g>
            </g>
        </g>
    </g>
</svg>