<?xml version="1.0" encoding="UTF-8"?>
<svg width="40px" height="40px" viewBox="0 0 40 40" version="1.1" xmlns="http://www.w3.org/2000/svg" xmlns:xlink="http://www.w3.org/1999/xlink">
    <!-- Generator: Sketch 51.2 (57519) - http://www.bohemiancoding.com/sketch -->
    <title>Group 8 Copy 3</title>
    <desc>Created with Sketch.</desc>
    <defs></defs>
    <g id="Page-2" stroke="none" stroke-width="1" fill="none" fill-rule="evenodd">
        <g id="Macbook-Pro-Copy-3" transform="translate(-266.000000, -610.000000)" fill="#FFFFFF" fill-rule="nonzero">
            <g id="Group-8-Copy-3" transform="translate(266.000000, 610.000000)">
                <g id="Group-7-Copy">
                    <g id="Group-11-Copy">
                        <g id="Group-10-Copy">
                            <path d="M20,0 C4.44444444,0 0,4.44444444 0,20 C0,35.5555556 4.45555556,40 20,40 C35.5444444,40 40,35.5555556 40,20 C40,4.44444444 35.5444444,0 20,0 Z" id="Shape" fill-opacity="0.1"></path>
                            <path d="M26.097,12.999985 L13.903,12.999985 C13.407,12.999985 13,13.407985 13,13.902985 L13,26.096985 C13,26.591985 13.633,26.999985 14.129,26.999985 L26.097,26.999985 C26.592,26.999985 27,26.591985 27,26.096985 L27,13.902985 C27,13.407985 26.592,12.999985 26.097,12.999985 Z M17.281,24.750986 L15.124,24.750986 L15.124,18.261985 L17.281,18.261985 L17.281,24.750986 Z M16.203,17.376985 L16.188,17.376985 C15.464,17.376985 14.996,16.877985 14.996,16.254985 C14.996,15.617985 15.478,15.133985 16.217,15.133985 C16.955,15.133985 17.41,15.618985 17.423,16.254985 C17.423,16.877985 16.955,17.376985 16.203,17.376985 Z M25.059,24.750986 L22.903,24.750986 L22.903,21.279985 C22.903,20.407985 22.59,19.811985 21.81,19.811985 C21.213,19.811985 20.858,20.213985 20.704,20.601985 C20.646,20.740985 20.632,20.934985 20.632,21.127986 L20.632,24.750986 L18.474,24.750986 C18.474,24.750986 18.503,18.870985 18.474,18.261986 L20.632,18.261986 L20.632,19.183986 C20.918,18.741986 21.428,18.109986 22.576,18.109986 C23.995,18.109986 25.059,19.037986 25.059,21.030986 L25.059,24.750986 Z" id="Shape"></path>
                        </g>
                    </g>
                </g>
            </g>
        </g>
    </g>
</svg>