<?xml version="1.0" encoding="UTF-8"?>
<svg width="40px" height="40px" viewBox="0 0 40 40" version="1.1" xmlns="http://www.w3.org/2000/svg" xmlns:xlink="http://www.w3.org/1999/xlink">
    <!-- Generator: Sketch 51.2 (57519) - http://www.bohemiancoding.com/sketch -->
    <title>Group 5</title>
    <desc>Created with Sketch.</desc>
    <defs></defs>
    <g id="Page-2" stroke="none" stroke-width="1" fill="none" fill-rule="evenodd">
        <g id="Macbook-Pro-Copy-3" transform="translate(-322.000000, -610.000000)" fill="#FFFFFF" fill-rule="nonzero">
            <g id="Group-5" transform="translate(322.000000, 610.000000)">
                <path d="M20,0 C4.44444444,0 0,4.44444444 0,20 C0,35.5555556 4.45555556,40 20,40 C35.5444444,40 40,35.5555556 40,20 C40,4.44444444 35.5444444,0 20,0 Z" id="Shape" fill-opacity="0.1"></path>
                <g id="noun_Email_1713383" transform="translate(13.000000, 15.000000)">
                    <g id="Group" transform="translate(0.000000, 0.114481)">
                        <path d="M1.07692308,0.0650048718 C0.865243077,0.0650048718 0.67094641,0.128597179 0.504807692,0.233274103 L6.50641026,5.95443333 C6.82358026,6.25658205 7.16471718,6.25654615 7.48237179,5.95443333 L13.4951923,0.233274103 C13.3290536,0.128597179 13.1347569,0.0650048718 12.9230769,0.0650048718 L1.07692308,0.0650048718 Z M0.0560897436,0.799794872 C0.0202228205,0.907361538 0,1.02198205 0,1.14193333 L0,9.03936923 C0,9.63596667 0.480318462,10.1162923 1.07692308,10.1162923 L12.9230769,10.1162923 C13.5196815,10.1162923 14,9.63596667 14,9.03936923 L14,1.14193333 C14,1.02198205 13.9797772,0.907361538 13.9439103,0.799794872 L7.98157051,6.47045897 C7.42567897,6.99915641 6.56294154,6.99987436 6.00721154,6.47045897 L0.0560897436,0.799794872 Z" id="Shape"></path>
                    </g>
                </g>
            </g>
        </g>
    </g>
</svg>