<?xml version="1.0" encoding="UTF-8"?>
<svg width="40px" height="40px" viewBox="0 0 40 40" version="1.1" xmlns="http://www.w3.org/2000/svg" xmlns:xlink="http://www.w3.org/1999/xlink">
    <!-- Generator: Sketch 51.2 (57519) - http://www.bohemiancoding.com/sketch -->
    <title>Group 8 Copy 2</title>
    <desc>Created with Sketch.</desc>
    <defs></defs>
    <g id="Page-2" stroke="none" stroke-width="1" fill="none" fill-rule="evenodd">
        <g id="Macbook-Pro-Copy-3" transform="translate(-210.000000, -610.000000)" fill="#FFFFFF" fill-rule="nonzero">
            <g id="Group-8-Copy-2" transform="translate(210.000000, 610.000000)">
                <g id="Group-7-Copy">
                    <g id="Group-11-Copy">
                        <g id="Group-10-Copy">
                            <path d="M20,0 C4.44444444,0 0,4.44444444 0,20 C0,35.5555556 4.45555556,40 20,40 C35.5444444,40 40,35.5555556 40,20 C40,4.44444444 35.5444444,0 20,0 Z" id="Shape" fill-opacity="0.1"></path>
                            <path d="M14.593239,17.1759749 C14.6099321,17.0110418 14.5470359,16.8480237 14.423879,16.7370174 L13.1693601,15.2257496 L13.1693601,15 L17.0646412,15 L20.0754866,21.6031746 L22.7225215,15 L26.4358974,15 L26.4358974,15.2257496 L25.3632838,16.2541642 C25.2708127,16.324651 25.2249424,16.4405011 25.2441045,16.5551636 L25.2441045,24.1115031 C25.2249424,24.2261655 25.2708127,24.3420156 25.3632838,24.4125025 L26.4108071,25.4409171 L26.4108071,25.6666667 L21.1418277,25.6666667 L21.1418277,25.4409171 L22.2269866,24.3874192 C22.3336206,24.2808152 22.3336206,24.2494611 22.3336206,24.0864198 L22.3336206,17.97864 L19.3165027,25.6415834 L18.908784,25.6415834 L15.3961311,17.97864 L15.3961311,23.1144425 C15.3668439,23.3303661 15.4385559,23.5477538 15.5905815,23.7038997 L17.0019153,25.4158338 L17.0019153,25.6415834 L13,25.6415834 L13,25.4158338 L14.4113338,23.7038997 C14.5622525,23.547495 14.629783,23.3286651 14.593239,23.1144425 L14.593239,17.1759749 Z" id="Shape"></path>
                        </g>
                    </g>
                </g>
            </g>
        </g>
    </g>
</svg>