<?xml version="1.0" encoding="UTF-8"?>
<svg width="40px" height="40px" viewBox="0 0 40 40" version="1.1" xmlns="http://www.w3.org/2000/svg" xmlns:xlink="http://www.w3.org/1999/xlink">
    <!-- Generator: Sketch 51.2 (57519) - http://www.bohemiancoding.com/sketch -->
    <title>Group 13</title>
    <desc>Created with Sketch.</desc>
    <defs></defs>
    <g id="Page-2" stroke="none" stroke-width="1" fill="none" fill-rule="evenodd">
        <g id="Group-13" fill-rule="nonzero">
            <g id="Group-11-Copy" fill="#00FFE6">
                <g id="Group-10-Copy">
                    <path d="M20,0 C4.44444444,0 0,4.44444444 0,20 C0,35.5555556 4.45555556,40 20,40 C35.5444444,40 40,35.5555556 40,20 C40,4.44444444 35.5444444,0 20,0 Z" id="Shape"></path>
                </g>
            </g>
            <g id="noun_Idea_824144" transform="translate(7.000000, 4.000000)" fill="#021872">
                <g id="Group">
                    <path d="M13.4166667,5.48333333 C13.125,5.48333333 12.8333333,5.48333333 12.5416667,5.54166667 C9.21666667,5.89166667 6.41666667,8.575 5.89166667,11.9 C5.54166667,14.0583333 6.125,16.1583333 7.40833333,17.7916667 C8.86666667,19.6 9.625,21.7 9.625,23.7416667 C9.625,24.0916667 9.85833333,24.325 10.2083333,24.325 L16.625,24.325 C16.975,24.325 17.2083333,24.0916667 17.2083333,23.7416667 C17.2083333,21.525 17.9083333,19.5416667 19.1916667,18.025 C20.3583333,16.625 21,14.875 21,13.0666667 C21.0583333,8.925 17.6166667,5.48333333 13.4166667,5.48333333 Z M18.3166667,17.2666667 C16.975,18.8416667 16.1583333,20.9416667 16.0416667,23.1583333 L10.7916667,23.1583333 C10.675,21 9.85833333,18.9 8.34166667,17.0333333 C7.23333333,15.6333333 6.76666667,13.825 7.05833333,12.0166667 C7.46666667,9.21666667 9.85833333,6.94166667 12.6583333,6.65 C12.8916667,6.65 13.1833333,6.59166667 13.4166667,6.59166667 C16.975,6.59166667 19.8916667,9.50833333 19.8916667,13.0666667 C19.8916667,14.6416667 19.3083333,16.1 18.3166667,17.2666667 Z" id="Shape"></path>
                    <path d="M13.4166667,7.93333333 C13.0666667,7.93333333 12.8333333,8.16666667 12.8333333,8.51666667 C12.8333333,8.86666667 13.0666667,9.1 13.4166667,9.1 C15.6333333,9.1 17.4416667,10.9083333 17.4416667,13.125 C17.4416667,13.475 17.675,13.7083333 18.025,13.7083333 C18.375,13.7083333 18.6083333,13.475 18.6083333,13.125 C18.6083333,10.2666667 16.275,7.93333333 13.4166667,7.93333333 Z" id="Shape"></path>
                    <path d="M26.1333333,12.7166667 L22.6916667,12.7166667 C22.3416667,12.7166667 22.1083333,12.95 22.1083333,13.3 C22.1083333,13.65 22.3416667,13.8833333 22.6916667,13.8833333 L26.1333333,13.8833333 C26.4833333,13.8833333 26.7166667,13.65 26.7166667,13.3 C26.7166667,12.95 26.425,12.7166667 26.1333333,12.7166667 Z" id="Shape"></path>
                    <path d="M4.78333333,13.3 C4.78333333,12.95 4.55,12.7166667 4.2,12.7166667 L0.7,12.7166667 C0.35,12.7166667 0.116666667,12.95 0.116666667,13.3 C0.116666667,13.65 0.35,13.8833333 0.7,13.8833333 L4.14166667,13.8833333 C4.49166667,13.8833333 4.78333333,13.5916667 4.78333333,13.3 Z" id="Shape"></path>
                    <path d="M13.4166667,4.43333333 C13.7666667,4.43333333 14,4.2 14,3.85 L14,0.583333333 C14,0.233333333 13.7666667,0 13.4166667,0 C13.0666667,0 12.8333333,0.233333333 12.8333333,0.583333333 L12.8333333,3.85 C12.8333333,4.2 13.0666667,4.43333333 13.4166667,4.43333333 Z" id="Shape"></path>
                    <path d="M20.0083333,7.23333333 C20.1833333,7.23333333 20.3,7.175 20.4166667,7.05833333 L22.75,4.725 C22.9833333,4.49166667 22.9833333,4.14166667 22.75,3.90833333 C22.5166667,3.675 22.1666667,3.675 21.9333333,3.90833333 L19.6,6.24166667 C19.3666667,6.475 19.3666667,6.825 19.6,7.05833333 C19.7166667,7.175 19.8916667,7.23333333 20.0083333,7.23333333 Z" id="Shape"></path>
                    <path d="M6.475,19.425 L4.025,21.875 C3.79166667,22.1083333 3.79166667,22.4583333 4.025,22.6916667 C4.14166667,22.8083333 4.31666667,22.8666667 4.43333333,22.8666667 C4.60833333,22.8666667 4.725,22.8083333 4.84166667,22.6916667 L7.29166667,20.2416667 C7.525,20.0083333 7.525,19.6583333 7.29166667,19.425 C7.05833333,19.1916667 6.70833333,19.1916667 6.475,19.425 Z" id="Shape"></path>
                    <path d="M20.3583333,19.3666667 C20.125,19.1333333 19.775,19.1333333 19.5416667,19.3666667 C19.3083333,19.6 19.3083333,19.95 19.5416667,20.1833333 L21.9916667,22.6333333 C22.1083333,22.75 22.2833333,22.8083333 22.4,22.8083333 C22.575,22.8083333 22.6916667,22.75 22.8083333,22.6333333 C23.0416667,22.4 23.0416667,22.05 22.8083333,21.8166667 L20.3583333,19.3666667 Z" id="Shape"></path>
                    <path d="M6.35833333,7.05833333 C6.475,7.175 6.65,7.23333333 6.76666667,7.23333333 C6.94166667,7.23333333 7.05833333,7.175 7.175,7.05833333 C7.40833333,6.825 7.40833333,6.475 7.175,6.24166667 L4.84166667,3.90833333 C4.60833333,3.675 4.25833333,3.675 4.025,3.90833333 C3.79166667,4.14166667 3.79166667,4.49166667 4.025,4.725 L6.35833333,7.05833333 Z" id="Shape"></path>
                    <path d="M16.45,25.025 L10.3833333,25.025 C10.0333333,25.025 9.8,25.2583333 9.8,25.6083333 C9.8,25.9583333 10.0333333,26.1916667 10.3833333,26.1916667 L16.45,26.1916667 C16.8,26.1916667 17.0333333,25.9583333 17.0333333,25.6083333 C17.0333333,25.2583333 16.7416667,25.025 16.45,25.025 Z" id="Shape"></path>
                    <path d="M16.45,26.8333333 L10.3833333,26.8333333 C10.0333333,26.8333333 9.8,27.0666667 9.8,27.4166667 C9.8,27.7666667 10.0333333,28 10.3833333,28 L16.45,28 C16.8,28 17.0333333,27.7666667 17.0333333,27.4166667 C17.0333333,27.0666667 16.7416667,26.8333333 16.45,26.8333333 Z" id="Shape"></path>
                </g>
            </g>
        </g>
    </g>
</svg>