<?xml version="1.0" encoding="UTF-8"?>
<svg width="40px" height="40px" viewBox="0 0 40 40" version="1.1" xmlns="http://www.w3.org/2000/svg" xmlns:xlink="http://www.w3.org/1999/xlink">
    <!-- Generator: Sketch 51.2 (57519) - http://www.bohemiancoding.com/sketch -->
    <title>Group 12</title>
    <desc>Created with Sketch.</desc>
    <defs></defs>
    <g id="Page-2" stroke="none" stroke-width="1" fill="none" fill-rule="evenodd">
        <g id="Group-12" fill-rule="nonzero">
            <g id="Group-11-Copy" fill="#00FFE6">
                <g id="Group-10-Copy">
                    <path d="M20,0 C4.44444444,0 0,4.44444444 0,20 C0,35.5555556 4.45555556,40 20,40 C35.5444444,40 40,35.5555556 40,20 C40,4.44444444 35.5444444,0 20,0 Z" id="Shape"></path>
                </g>
            </g>
            <g id="noun_Rocket_1628795" transform="translate(20.400000, 20.000000) rotate(37.000000) translate(-20.400000, -20.000000) translate(12.000000, 2.000000)" fill="#021872">
                <path d="M13.962,14.04 C13.962,13.887 13.962,13.74 13.962,13.575 C13.962,10.299 12.726,6.207 11.307,3.375 C11.2880449,3.29507088 11.2499522,3.2209445 11.196,3.159 C10.23,1.275 9.186,0 8.4,0 C7.389,0 6.3,1.731 5.547,3.228 C5.53174415,3.25280955 5.51869413,3.27890959 5.508,3.306 C5.238,3.849 5.013,4.353 4.854,4.728 C3.567,7.767 2.832,10.992 2.832,13.578 C2.832,13.734 2.832,13.878 2.832,14.043 C0.927,15.441 0.432,16.425 0.432,20.754 C0.421518248,21.8991326 0.611378091,23.0372763 0.993,24.117 C1.06512916,24.2949424 1.21806322,24.427617 1.40440555,24.4739059 C1.59074787,24.5201947 1.78798869,24.4745062 1.935,24.351 L4.794,21.951 C5.01724576,22.3258858 5.27324526,22.6802694 5.559,23.01 C5.67274191,23.1394706 5.83666371,23.2137818 6.009,23.214 L7.8,23.214 L7.8,23.907 C7.8,24.2383708 8.06862915,24.507 8.4,24.507 C8.73137085,24.507 9,24.2383708 9,23.907 L9,23.193 L10.782,23.193 C10.9543363,23.1927818 11.1182581,23.1184706 11.232,22.989 C11.5186487,22.6603437 11.7756511,22.3069654 12,21.933 L14.859,24.333 C15.0060113,24.4565062 15.2032521,24.5021947 15.3895945,24.4559059 C15.5759368,24.409617 15.7288708,24.2769424 15.801,24.099 C16.1826219,23.0192763 16.3724818,21.8811326 16.362,20.736 C16.362,16.419 15.867,15.438 13.962,14.04 Z M8.4,1.2 C8.661,1.332 9.075,1.854 9.546,2.646 C9.225,2.619 8.85,2.607 8.406,2.607 C7.962,2.607 7.563,2.622 7.239,2.649 C7.71,1.86 8.13,1.335 8.4,1.2 Z M6.528,3.969 C7.14409955,3.84677475 7.77229893,3.79643826 8.4,3.819 C9.01987472,3.80245835 9.6396702,3.85477875 10.248,3.975 C11.472,6.468 12.768,10.227 12.768,13.575 C12.7681739,14.512396 12.7030161,15.4486644 12.573,16.377 C12.333,16.353 12.054,16.335 11.739,16.317 C10.989,16.272 10.032,16.248 9,16.239 L9,14.346 C9,14.0146292 8.73137085,13.746 8.4,13.746 C8.06862915,13.746 7.8,14.0146292 7.8,14.346 L7.8,16.242 C6.768,16.242 5.811,16.278 5.061,16.32 C4.761,16.338 4.461,16.356 4.227,16.38 C4.09698392,15.4516644 4.03182606,14.515396 4.032,13.578 C4.032,10.2 5.307,6.459 6.522,3.984 L6.528,3.969 Z M1.863,22.842 C1.71506238,22.1517473 1.63965296,21.447926 1.638,20.742 C1.638,17.334 1.905,16.38 2.919,15.489 C2.967,16.038 3.036,16.575 3.126,17.097 C3.12676883,17.1731859 3.14204094,17.2485283 3.171,17.319 C3.38384224,18.5271449 3.74037265,19.7055081 4.233,20.829 L1.863,22.842 Z M6.3,21.993 C5.463,20.949 4.821,19.389 4.437,17.568 C5.037,17.511 6.195,17.451 7.803,17.439 L7.803,21.993 L6.3,21.993 Z M10.5,21.993 L9,21.993 L9,17.439 C10.608,17.439 11.76,17.508 12.366,17.568 C11.982,19.392 11.34,20.949 10.5,21.993 Z M14.934,22.842 L12.57,20.844 C13.0626274,19.7205081 13.4191578,18.5421449 13.632,17.334 C13.6609591,17.2635283 13.6762312,17.1881859 13.677,17.112 C13.767,16.59 13.836,16.053 13.884,15.504 C14.898,16.404 15.165,17.349 15.165,20.757 C15.1613201,21.4580153 15.0849109,22.1567567 14.937,22.842 L14.934,22.842 Z" id="Shape"></path>
                <path d="M8.4,25.557 C8.06862915,25.557 7.8,25.8256292 7.8,26.157 L7.8,34.95 C7.8,35.2813708 8.06862915,35.55 8.4,35.55 C8.73137085,35.55 9,35.2813708 9,34.95 L9,26.157 C9,25.8256292 8.73137085,25.557 8.4,25.557 Z" id="Shape"></path>
                <path d="M6.069,24.189 C5.73762915,24.189 5.469,24.4576292 5.469,24.789 L5.469,28.725 C5.469,29.0563708 5.73762915,29.325 6.069,29.325 C6.40037085,29.325 6.669,29.0563708 6.669,28.725 L6.669,24.789 C6.669,24.4576292 6.40037085,24.189 6.069,24.189 Z" id="Shape"></path>
                <path d="M10.731,24.189 C10.3996292,24.189 10.131,24.4576292 10.131,24.789 L10.131,28.725 C10.131,29.0563708 10.3996292,29.325 10.731,29.325 C11.0623708,29.325 11.331,29.0563708 11.331,28.725 L11.331,24.789 C11.331,24.4576292 11.0623708,24.189 10.731,24.189 Z" id="Shape"></path>
                <path d="M8.4,12.381 C9.87294343,12.381 11.067,11.1869434 11.067,9.714 C11.067,8.24105657 9.87294343,7.047 8.4,7.047 C6.92705657,7.047 5.733,8.24105657 5.733,9.714 C5.7346533,11.1862581 6.92774193,12.3793467 8.4,12.381 Z M8.4,8.25 C9.21020173,8.25 9.867,8.90679827 9.867,9.717 C9.867,10.5272017 9.21020173,11.184 8.4,11.184 C7.58979827,11.184 6.933,10.5272017 6.933,9.717 C6.933,8.90679827 7.58979827,8.25 8.4,8.25 Z" id="Shape"></path>
            </g>
        </g>
    </g>
</svg>