<?xml version="1.0" encoding="UTF-8"?>
<svg width="40px" height="40px" viewBox="0 0 40 40" version="1.1" xmlns="http://www.w3.org/2000/svg" xmlns:xlink="http://www.w3.org/1999/xlink">
    <!-- Generator: Sketch 51.2 (57519) - http://www.bohemiancoding.com/sketch -->
    <title>Group 8 Copy</title>
    <desc>Created with Sketch.</desc>
    <defs></defs>
    <g id="Page-2" stroke="none" stroke-width="1" fill="none" fill-rule="evenodd">
        <g id="Macbook-Pro-Copy-3" transform="translate(-154.000000, -610.000000)" fill="#FFFFFF" fill-rule="nonzero">
            <g id="Group-8-Copy" transform="translate(154.000000, 610.000000)">
                <g id="Group-7-Copy">
                    <g id="Group-11-Copy">
                        <g id="Group-10-Copy">
                            <path d="M20,0 C4.44444444,0 0,4.44444444 0,20 C0,35.5555556 4.45555556,40 20,40 C35.5444444,40 40,35.5555556 40,20 C40,4.44444444 35.5444444,0 20,0 Z" id="Shape" fill-opacity="0.1"></path>
                            <path d="M13.863,14.6021264 C13.863,14.6021264 15.82,17.3891264 19.967,17.6541264 C19.967,17.6541264 19.536,15.3651264 21.46,14.3361264 C23.384,13.3081264 24.844,14.9661264 24.844,14.9661264 C24.844,14.9661264 25.707,14.9001264 26.602,14.2361264 C26.602,14.2361264 26.768,14.8331264 25.474,15.8281264 C25.474,15.8281264 26.171,15.7621264 27,15.4301264 C27,15.4301264 26.735,16.2591264 25.64,16.9231264 C25.64,16.9231264 26.171,20.4061264 22.654,23.7241274 C19.137,27.0431264 13.697,25.0861264 13,24.4221264 C13,24.4221264 15.621,24.5221264 17.114,23.0951264 C17.114,23.0951264 15.422,23.0291264 14.56,21.1381264 C14.56,21.1381264 15.256,21.2381264 15.887,21.0051264 C15.887,21.0051264 13.731,20.4741264 13.532,18.2521264 C13.532,18.2521264 13.963,18.5171264 14.693,18.3851264 C14.692,18.3841264 12.801,17.0901264 13.863,14.6021264 Z" id="Shape"></path>
                        </g>
                    </g>
                </g>
            </g>
        </g>
    </g>
</svg>